# xmcd
#
# Track frame offsets: 
#        150
#        15179
#        30116
#        43364
#        56618
#        70871
#        84273
#        98775
#        111242
#        124124
#        136334
#        149710
#        162294
#        175631
#        189601
#        203493
#        216044
#        228478
#        242342
#        254529
#        266638
#        281108
#        294157
#        308627
#        321841
#
# Disc length: 4475 seconds
#
# Revision: 0
# Processed by: cddbd v1.5.2PL0 Copyright (c) Steve Scherf et al.
# Submitted via: ExactAudioCopy v0.95a5
#
DISCID=5f117919
DTITLE=T-Bone Walker - You're My Best Poker Hand - Vol.1
DYEAR=2011
DGENRE=Blues
TTITLE0=T-Bone Blues [1940]
TTITLE1=I Got A Break Baby
TTITLE2=Mean Old World [1942]
TTITLE3=My Baby Left Me
TTITLE4=Come Back To Me Baby
TTITLE5=She Is Going To Ruin Me
TTITLE6=I Can't Stand Being Away From You
TTITLE7=No Worry Blues
TTITLE8=Don't Leave Me Baby
TTITLE9=Bobby Sox Blues
TTITLE10=I'm Gonna Find My Baby
TTITLE11=I'm In An Awful Mood
TTITLE12=It's A Low Down Dirty Deal
TTITLE13=Don't Give Me The Runaround
TTITLE14=Hard Pain Blues
TTITLE15=I Know Your Wig Is Gone
TTITLE16=T-Bone Jumps Again
TTITLE17=Call It Stormy Monday [1947]
TTITLE18=She's My Old Time Used To Be
TTITLE19=Midnight Blues
TTITLE20=Triftin Women Blues
TTITLE21=Long Shirt Baby Blues
TTITLE22=Goodbye Blues
TTITLE23=On Your Way Blues
TTITLE24=The Natural Blues
EXTD=
EXTT0=
EXTT1=
EXTT2=
EXTT3=
EXTT4=
EXTT5=
EXTT6=
EXTT7=
EXTT8=
EXTT9=
EXTT10=
EXTT11=
EXTT12=
EXTT13=
EXTT14=
EXTT15=
EXTT16=
EXTT17=
EXTT18=
EXTT19=
EXTT20=
EXTT21=
EXTT22=
EXTT23=
EXTT24=
PLAYORDER=
